#!OML:ASF H:\ManfredObstacles\Project 1\Capture day 1\Session 1\Male.ASF
:FULLY-SPECIFIED
:DEGREES
467
root 1.84974 16.6109 -26.6182 -169.48 -14.1121 -173.669
lowerback -13.1462 -4.008 2.88987
upperback -0.0226212 -6.32716 4.16012
thorax 7.5197 -3.15545 1.54958
lowerneck 2.83154 -2.37058 -6.69274
upperneck -9.66825 -3.16414 8.19117
head -3.08085 -1.80588 3.6961
rclavicle 3.24764e-014 -5.12864e-014
rhumerus -31.4372 -16.2109 -79.2851
rradius 29.3421
rwrist 28.2718
rhand -1.16804 -7.78954
rfingers 7.12502
rthumb 24.4711 -36.2463
lclavicle 3.24764e-014 -5.12864e-014
lhumerus -29.2307 27.3154 79.7234
lradius 14.9602
lwrist -41.2595
lhand -11.9686 8.16857
lfingers 7.12502
lthumb 14.0872 37.6711
rfemur -28.9419 -6.5815 30.9355
rtibia 23.882
rfoot -14.0032 15.1479
rtoes 14.5844
lfemur 2.20069 -7.02836 -7.14649
ltibia 19.2467
lfoot 10.1725 -14.1602
ltoes -0.0246421
468
root 1.86882 16.6104 -26.665 -169.364 -14.2146 -173.837
lowerback -13.1171 -4.00491 2.7854
upperback -0.0635619 -6.29637 4.12134
thorax 7.46487 -3.14319 1.57604
lowerneck 2.96156 -2.35365 -6.77465
upperneck -9.89632 -3.14813 8.23457
head -3.16959 -1.8035 3.72955
rclavicle -5.34234e-015 -1.90833e-014
rhumerus -31.2457 -16.437 -79.3286
rradius 28.9013
rwrist 29.0197
rhand -1.04845 -7.81002
rfingers 7.12502
rthumb 24.5858 -36.2513
lclavicle -5.34234e-015 -1.90833e-014
lhumerus -28.4983 25.4713 81.0616
lradius 15.4962
lwrist -39.61
lhand -12.016 8.09185
lfingers 7.12502
lthumb 14.0416 37.5975
rfemur -28.8801 -6.39316 30.768
rtibia 23.981
rfoot -14.3036 14.9527
rtoes 15.2469
lfemur 2.26679 -7.08189 -7.17317
ltibia 19.1365
lfoot 10.7698 -13.9093
ltoes 2.29467
469
root 1.88574 16.6181 -26.7076 -168.823 -14.3302 -173.957
lowerback -13.5308 -3.94994 2.8037
upperback -0.224795 -6.24263 4.07852
thorax 7.51648 -3.11646 1.50647
lowerneck 2.92991 -2.37176 -6.79748
upperneck -9.97295 -3.17206 8.26627
head -3.18432 -1.81806 3.74474
rclavicle 1.5381e-014 -3.33958e-014
rhumerus -31.1292 -16.8134 -79.3588
rradius 28.4415
rwrist 29.7665
rhand -1.00362 -7.83199
rfingers 7.12502
rthumb 24.6287 -36.2674
lclavicle 1.5381e-014 -3.33958e-014
lhumerus -27.8211 23.4416 82.4008
lradius 16.1654
lwrist -37.7623
lhand -11.9395 8.14933
lfingers 7.12502
lthumb 14.1153 37.6499
rfemur -29.3352 -6.16164 30.737
rtibia 24.1
rfoot -14.3219 14.6828
rtoes 14.9443
lfemur 1.84042 -7.08607 -7.10279
ltibia 19.0165
lfoot 11.3947 -13.7457
ltoes 3.12404
470
root 1.89978 16.6318 -26.7473 -168.221 -14.3968 -174.116
lowerback -14.0095 -3.85223 2.82685
upperback -0.343427 -6.13507 4.01006
thorax 7.64576 -3.06045 1.41249
lowerneck 2.70788 -2.37974 -6.68029
upperneck -9.97938 -3.17783 8.19936
head -3.15227 -1.82191 3.70124
rclavicle 4.77083e-015 2.18663e-014
rhumerus -30.9483 -17.2145 -79.4004
rradius 28.0044
rwrist 30.3467
rhand -0.972718 -7.82724
rfingers 7.12502
rthumb 24.6584 -36.2586
lclavicle 4.77083e-015 2.18663e-014
lhumerus -27.1026 21.3565 83.7579
lradius 16.9464
lwrist -35.9081
lhand -11.8281 8.2598
lfingers 7.12502
lthumb 14.2226 37.7528
rfemur -29.9142 -6.21577 30.7491
rtibia 24.2222
rfoot -14.148 14.7859
rtoes 14.6328
lfemur 1.31969 -7.03578 -7.09188
ltibia 18.9109
lfoot 11.899 -13.6735
ltoes 2.18543
471
root 1.91241 16.6415 -26.785 -167.861 -14.4524 -174.316
lowerback -14.2449 -3.82118 2.73282
upperback -0.380955 -6.08629 3.97629
thorax 7.74258 -3.03722 1.42353
lowerneck 2.55276 -2.35584 -6.65145
upperneck -10.0762 -3.14955 8.11045
head -3.16004 -1.80706 3.66781
rclavicle 8.05078e-015 -3.02153e-014
rhumerus -30.7736 -17.3073 -79.4813
rradius 27.6455
rwrist 30.7063
rhand -1.03484 -7.79604
rfingers 7.12502
rthumb 24.5988 -36.2355
lclavicle 8.05078e-015 -3.02153e-014
lhumerus -26.4477 19.6091 84.9993
lradius 17.6691
lwrist -34.2621
lhand -11.8002 8.25794
lfingers 7.12502
lthumb 14.2496 37.7491
rfemur -30.2265 -6.3867 30.6856
rtibia 24.3151
rfoot -14.0804 15.0388
rtoes 14.984
lfemur 1.05789 -7.07428 -7.17912
ltibia 18.8296
lfoot 12.098 -13.7255
ltoes 0.622289
472
root 1.92503 16.6437 -26.8179 -167.697 -14.4851 -174.489
lowerback -14.2533 -3.8389 2.60129
upperback -0.421609 -6.0874 3.98312
thorax 7.71762 -3.04351 1.50421
lowerneck 2.42805 -2.25217 -6.8187
upperneck -10.0692 -3.00574 8.25541
head -3.14249 -1.73602 3.73413
rclavicle -6.70898e-016 1.39149e-014
rhumerus -30.6607 -17.4433 -79.4692
rradius 27.2145
rwrist 31.2468
rhand -1.07499 -7.71807
rfingers 7.12502
rthumb 24.5603 -36.1628
lclavicle -6.70898e-016 1.39149e-014
lhumerus -25.9013 18.02 86.144
lradius 18.3276
lwrist -32.6571
lhand -11.725 8.31323
lfingers 7.12502
lthumb 14.322 37.7993
rfemur -30.2993 -6.42623 30.5709
rtibia 24.4114
rfoot -14.2547 15.1646
rtoes 15.3637
lfemur 1.05463 -7.11306 -7.27947
ltibia 18.6734
lfoot 12.2769 -13.8431
ltoes -0.5196
473
root 1.93884 16.6431 -26.8453 -167.693 -14.5318 -174.645
lowerback -14.1094 -3.83439 2.5085
upperback -0.409229 -6.05064 3.9481
thorax 7.65463 -3.02723 1.53599
lowerneck 2.53689 -2.23682 -6.8551
upperneck -10.3288 -2.99795 8.1905
head -3.23967 -1.73504 3.72727
rclavicle -8.10544e-014 3.57812e-015
rhumerus -30.4644 -17.8786 -79.4166
rradius 26.5991
rwrist 31.9968
rhand -1.00539 -7.63302
rfingers 7.12502
rthumb 24.627 -36.0686
lclavicle -8.10544e-014 3.57812e-015
lhumerus -25.3503 16.3741 87.2029
lradius 19.0235
lwrist -31.2261
lhand -11.4927 8.50617
lfingers 7.12502
lthumb 14.5458 37.9762
rfemur -30.1806 -6.34339 30.4137
rtibia 24.5243
rfoot -14.5889 15.0756
rtoes 15.2405
lfemur 1.22124 -7.09627 -7.3709
ltibia 18.4428
lfoot 12.8056 -13.7265
ltoes -0.197961
474
root 1.95259 16.6387 -26.8676 -167.847 -14.5696 -174.811
lowerback -13.8217 -3.79371 2.43327
upperback -0.306357 -5.95404 3.86281
thorax 7.59936 -2.97656 1.52419
lowerneck 2.52774 -2.23375 -6.71277
upperneck -10.4837 -2.99491 8.12358
head -3.28837 -1.74065 3.68626
rclavicle 1.60022e-014 -2.06736e-014
rhumerus -30.2242 -18.4938 -79.3699
rradius 25.9158
rwrist 32.7623
rhand -1.02625 -7.50608
rfingers 7.12502
rthumb 24.607 -35.9444
lclavicle 1.60022e-014 -2.06736e-014
lhumerus -24.7717 14.9346 88.1268
lradius 19.6738
lwrist -30.3057
lhand -11.2143 8.63187
lfingers 7.12502
lthumb 14.814 38.0824
rfemur -29.9298 -6.3669 30.2507
rtibia 24.6294
rfoot -14.8364 15.0596
rtoes 15.1092
lfemur 1.51781 -7.07015 -7.49543
ltibia 18.2548
lfoot 13.5127 -13.303
ltoes 1.46816
475
root 1.96316 16.6401 -26.8861 -167.756 -14.5661 -174.997
lowerback -13.7115 -3.74163 2.37073
upperback -0.33055 -5.85815 3.79963
thorax 7.50832 -2.93054 1.51984
lowerneck 2.54053 -2.20939 -6.70841
upperneck -10.5527 -2.96264 8.12847
head -3.31361 -1.72698 3.68788
rclavicle 2.86747e-014 5.56597e-015
rhumerus -30.3502 -18.8468 -79.347
rradius 25.8687
rwrist 33.2336
rhand -0.909316 -7.55522
rfingers 7.12502
rthumb 24.7191 -35.9782
lclavicle 2.86747e-014 5.56597e-015
lhumerus -24.3561 13.6577 88.9985
lradius 20.2768
lwrist -29.3657
lhand -11.1246 8.65134
lfingers 7.12502
lthumb 14.9005 38.0954
rfemur -29.9835 -6.47543 30.1188
rtibia 24.7124
rfoot -14.8828 15.2706
rtoes 15.1038
lfemur 1.53662 -7.09625 -7.64775
ltibia 18.131
lfoot 13.9015 -12.9026
ltoes 2.73159
476
root 1.97243 16.6484 -26.9028 -167.36 -14.5559 -175.207
lowerback -13.8781 -3.72308 2.26609
upperback -0.483706 -5.82161 3.78032
thorax 7.44453 -2.91952 1.55834
lowerneck 2.56585 -2.16499 -6.80469
upperneck -10.5288 -2.90198 8.19144
head -3.31251 -1.69518 3.72146
rclavicle 1.62506e-014 -1.31198e-014
rhumerus -30.3233 -19.0748 -79.3123
rradius 25.4769
rwrist 33.6781
rhand -0.94353 -7.55054
rfingers 7.12502
rthumb 24.6863 -35.9781
lclavicle 1.62506e-014 -1.31198e-014
lhumerus -24.0514 12.5333 89.8129
lradius 20.8293
lwrist -28.3525
lhand -11.0371 8.89964
lfingers 7.12502
lthumb 14.9848 38.3375
rfemur -30.3221 -6.33606 29.9238
rtibia 24.781
rfoot -14.9733 15.2312
rtoes 15.0999
lfemur 1.24075 -7.10242 -7.79662
ltibia 18.0169
lfoot 13.9981 -12.7374
ltoes 2.60182
477
root 1.98318 16.6519 -26.9181 -167.198 -14.5525 -175.408
lowerback -13.8827 -3.69806 2.13286
upperback -0.505016 -5.76068 3.74567
thorax 7.43195 -2.89289 1.6085
lowerneck 2.49665 -2.16464 -6.78489
upperneck -10.4714 -2.90355 8.10353
head -3.28581 -1.69 3.68877
rclavicle -6.95746e-014 1.51076e-014
rhumerus -30.2621 -19.3069 -79.2721
rradius 25.0648
rwrist 34.0674
rhand -0.975452 -7.53214
rfingers 7.12502
rthumb 24.6557 -35.9638
lclavicle -6.95746e-014 1.51076e-014
lhumerus -23.6183 11.3563 90.615
lradius 21.2854
lwrist -27.5086
lhand -10.9234 9.08897
lfingers 7.12502
lthumb 15.0943 38.5186
rfemur -30.3779 -6.13547 29.6906
rtibia 24.8368
rfoot -15.1818 14.9637
rtoes 15.1173
lfemur 1.18995 -7.05033 -7.94645
ltibia 17.9347
lfoot 14.081 -12.7893
ltoes 1.72009
